<svg viewBox="0 0 1000 1000" xmlns="http://www.w3.org/2000/svg"><defs><linearGradient id="a" x2="1000" y1="500" y2="500" gradientUnits="userSpaceOnUse"><stop stop-color="#00a495" offset="0"></stop><stop stop-color="#13ad65" offset="1"></stop></linearGradient></defs><path d="M0 500a500 500 0 101000 0A500 500 0 100 500" fill="url(#a)"></path><g fill="#fff"><path d="M753.622 723.679H246.393c-20.097 0-36.394-16.298-36.394-36.395 0-20.091 16.297-36.395 36.394-36.395h507.23c20.09 0 36.376 16.304 36.376 36.395s-16.286 36.395-36.377 36.395zM433.072 552.971H246.393c-20.097 0-36.394-16.303-36.394-36.394V312.712c0-20.09 16.297-36.394 36.394-36.394h186.679c20.09 0 36.394 16.303 36.394 36.394v203.865c0 20.09-16.303 36.394-36.394 36.394zm-150.284-72.795H396.67V349.113H282.788zM753.622 360.161H569.354c-20.097 0-36.4-16.303-36.4-36.4s16.303-36.395 36.4-36.395h184.268c20.091 0 36.377 16.298 36.377 36.395s-16.286 36.4-36.377 36.4zM753.622 541.917H569.354c-20.097 0-36.4-16.292-36.4-36.389s16.303-36.394 36.4-36.394h184.268c20.091 0 36.377 16.297 36.377 36.394s-16.286 36.389-36.377 36.389z"></path></g></svg>