<svg xmlns="http://www.w3.org/2000/svg" viewBox="0 0 589.43 249.37"><g id="레이어_2"><g id="Layer_1"><polygon points="107.63 89.81 138.8 50.41 126.12 41.18 88.6 90.7 131.22 143.24 143.73 133.47 107.63 89.81" style="fill:#000102"></polygon><polygon points="66.59 140.74 82.79 140.74 82.79 0 66.59 3.55 66.59 140.74" style="fill:#000102"></polygon><path d="M196.28,84.48q-18.66,0-28.43,7.73t-9.78,22.45q0,13,7.31,20.32t20.16,7.36a42.83,42.83,0,0,0,15.59-3.19,57.6,57.6,0,0,0,15.41-9.05l1.94,10.65h12V78.63q0-36.73-34.17-36.75A63.37,63.37,0,0,0,180,44.11a66,66,0,0,0-15.59,6.3L169.17,62a74.43,74.43,0,0,1,12.77-4.44,53.9,53.9,0,0,1,13.29-1.78Q215,55.73,215,78.27v6.21ZM215,118.21a39.93,39.93,0,0,1-5.62,4.35,39.37,39.37,0,0,1-6.75,3.46,57.63,57.63,0,0,1-7.19,2.31,28.93,28.93,0,0,1-6.93.88q-14.9,0-14.9-15.26,0-9.58,5.87-14t18.68-4.44H215Z" style="fill:#000102"></path><polygon points="331.48 50.41 318.8 41.18 281.3 90.69 323.91 143.24 336.41 133.47 300.31 89.81 331.48 50.41" style="fill:#000102"></polygon><polygon points="275.48 0 259.29 3.55 259.29 140.75 275.48 140.75 275.48 0" style="fill:#000102"></polygon><path d="M411.15,140.75h12V78.63q0-36.73-34.16-36.75a63.38,63.38,0,0,0-16.29,2.23,65.89,65.89,0,0,0-15.58,6.3L361.86,62a74,74,0,0,1,12.76-4.44,54,54,0,0,1,13.3-1.78q19.72,0,19.72,22.54v6.21H389q-18.68,0-28.44,7.73t-9.77,22.45q0,13,7.3,20.32t20.17,7.36a42.86,42.86,0,0,0,15.58-3.19,57.45,57.45,0,0,0,15.41-9.05Zm-3.51-22.54a40.41,40.41,0,0,1-5.61,4.35,39.74,39.74,0,0,1-6.75,3.46,57.63,57.63,0,0,1-7.19,2.31,29,29,0,0,1-6.93.88q-14.9,0-14.9-15.26,0-9.58,5.87-14t18.68-4.44h16.83Z" style="fill:#000102"></path><path d="M488.32,142.88q20.24,0,31.6-13t11.37-37.09q0-24.49-11.46-37.63T488.32,42.07q-19.9,0-31.44,13.13T445.34,92.83q0,24.12,11.46,37.09T488.32,142.88Zm-19.46-78.1q6.78-9.59,19.46-9.58,12.84,0,19.63,9.58t6.78,28.05q0,18.28-6.78,27.59t-19.63,9.33q-12.69,0-19.46-9.33t-6.79-27.59Q462.07,74.36,468.86,64.78Z" style="fill:#000102"></path><polygon points="8.4 227.82 29.16 227.82 29.16 220.1 8.4 220.1 8.4 208.42 34.61 208.42 34.61 200.7 0 200.7 0 249.27 35.29 249.27 35.29 241.55 8.4 241.55 8.4 227.82" style="fill:#000102"></polygon><polygon points="77.6 234.2 51.73 200.7 44.58 200.7 44.58 249.27 52.98 249.27 52.98 215.77 78.85 249.27 86 249.27 86 200.7 77.6 200.7 77.6 234.2" style="fill:#000102"></polygon><polygon points="94.6 208.42 108.9 208.42 108.9 249.27 117.3 249.27 117.3 208.42 131.59 208.42 131.59 200.7 94.6 200.7 94.6 208.42" style="fill:#000102"></polygon><polygon points="149.35 227.82 170.12 227.82 170.12 220.1 149.35 220.1 149.35 208.42 175.56 208.42 175.56 200.7 140.95 200.7 140.95 249.27 176.25 249.27 176.25 241.55 149.35 241.55 149.35 227.82" style="fill:#000102"></polygon><path d="M221.84,215.79c0-8.6-6.78-15.09-15.77-15.09H185.53v48.57h8.4V230.88H204.1L214.18,249l.13.24h9.23l-11-19.3C214.51,229.07,221.84,225.12,221.84,215.79Zm-15.77,7.38H193.93V208.42h12.14a7.38,7.38,0,0,1,0,14.75Z" style="fill:#000102"></path><polygon points="265.57 200.8 228.58 200.8 228.58 208.52 242.88 208.52 242.88 249.37 251.28 249.37 251.28 208.52 265.57 208.52 265.57 200.8" style="fill:#000102"></polygon><path d="M292.59,200.7H284.5l-20.13,48.57h8.82l5.11-12.6h20.49l5.11,12.6h8.81l-20-48.29ZM281.39,229l7.16-18,7.15,18Z" style="fill:#000102"></path><rect x="320.28" y="200.7" width="8.4" height="48.57" style="fill:#000102"></rect><polygon points="374.44 234.2 348.57 200.7 341.43 200.7 341.43 249.27 349.83 249.27 349.83 215.77 375.7 249.27 382.85 249.27 382.85 200.7 374.44 200.7 374.44 234.2" style="fill:#000102"></polygon><polygon points="419.82 223.57 401.67 200.7 394.52 200.7 394.52 249.27 402.92 249.27 402.92 215.39 419.82 236.61 436.73 215.39 436.73 249.27 445.13 249.27 445.13 200.7 437.99 200.7 419.82 223.57" style="fill:#000102"></polygon><polygon points="465.3 227.82 486.07 227.82 486.07 220.1 465.3 220.1 465.3 208.42 491.52 208.42 491.52 200.7 456.9 200.7 456.9 249.27 492.19 249.27 492.19 241.55 465.3 241.55 465.3 227.82" style="fill:#000102"></polygon><polygon points="535.86 234.2 509.99 200.7 502.84 200.7 502.84 249.27 511.24 249.27 511.24 215.77 537.11 249.27 544.26 249.27 544.26 200.7 535.86 200.7 535.86 234.2" style="fill:#000102"></polygon><polygon points="552.44 200.7 552.44 208.42 566.74 208.42 566.74 249.27 575.14 249.27 575.14 208.42 589.43 208.42 589.43 200.7 552.44 200.7" style="fill:#000102"></polygon></g></g></svg>